<svg width="100" height="30" viewBox="0 0 100 30" fill="none" xmlns="http://www.w3.org/2000/svg">
<path d="M13.146 23.665C12.87 23.679 12.376 23.699 12.178 23.699H8.994V6.303H12.18C12.378 6.303 12.872 6.323 13.148 6.335C17.682 6.547 20.996 10.339 20.996 15.003C20.994 19.661 17.682 23.453 13.146 23.665ZM0 29.989V29.995H8.994L12.492 29.989C13.082 29.989 14.542 29.983 15.638 29.943C25.108 29.777 30.438 22.737 30.438 14.997C30.438 7.257 25.108 0.217005 15.638 0.0510049C14.542 0.0110049 13.082 0.00500488 12.492 0.00500488H0V29.989ZM63.566 0.00500488H55.174V16.503L43.18 0.00500488H35.382V29.995H43.774V13.203L55.768 29.995H63.564V0.00500488H63.566ZM90.55 10.953C90.55 8.697 89.416 6.783 87.174 6.393C86.706 6.317 85.528 6.303 85.342 6.303H79.762V15.599H85.342C85.528 15.599 86.706 15.593 87.174 15.511C89.416 15.119 90.55 13.203 90.55 10.953ZM87.136 0.00500488C87.534 0.00500488 88.206 0.0310049 88.598 0.0570049C97.534 0.511005 100 6.745 100 10.953C100 15.163 97.534 21.391 88.596 21.851C88.204 21.875 87.532 21.895 87.134 21.895H79.76V29.993H70.76V0.00500488H87.136Z" fill="#686868"/>
</svg>
