<svg width="100" height="19" viewBox="0 0 100 19" fill="none" xmlns="http://www.w3.org/2000/svg">
<g clip-path="url(#clip0_82_1138)">
<path d="M11.8859 0.642821C10.4573 0.942821 9.20018 1.22854 9.10018 1.25711C9.01447 1.29996 10.5145 1.34282 12.4716 1.34282C15.8573 1.35711 16.0002 1.34282 16.0002 1.08568C16.0002 0.728536 15.2145 0.0713926 14.8145 0.0856784C14.643 0.0856784 13.3288 0.342821 11.8859 0.642821ZM1.78589 1.85711L1.42875 2.19996V9.47139C1.42875 16.6143 1.42875 16.7571 1.72875 17.1285L2.01447 17.5H16.8145L17.1145 17.1714C17.4288 16.8428 17.4288 16.8428 17.4288 9.51425V2.19996L17.0716 1.85711L16.7288 1.49996H2.12875L1.78589 1.85711ZM15.8573 3.77139C15.8573 3.84282 15.743 3.98568 15.6145 4.08568C15.4859 4.19996 14.7002 5.11425 13.8859 6.14282C12.2002 8.24282 10.0573 11.4143 8.78589 13.6857C8.31447 14.5143 7.90018 15.2143 7.85732 15.2143C7.81447 15.2143 7.60018 14.8428 7.35732 14.3857C6.70018 13.1428 5.45732 11.5285 4.30018 10.4571C3.71447 9.92854 3.20018 9.49997 3.12875 9.49997C3.05732 9.49997 3.00018 9.44282 3.00018 9.38568C3.00018 9.31425 3.51447 9.28568 4.15732 9.31425C5.55732 9.37139 6.18589 9.65711 7.11447 10.6428L7.77161 11.3428L8.74304 9.88568C10.5002 7.31425 13.0288 4.42854 13.9859 3.92854C14.5145 3.65711 15.8573 3.54282 15.8573 3.77139ZM0.443037 3.24282C0.271609 3.41425 0.114466 3.67139 0.0716087 3.81425C0.000180103 4.02854 1.08589 9.75711 1.22875 9.91425C1.25732 9.94282 1.28589 8.38568 1.28589 6.45711C1.28589 3.04282 1.27161 2.92854 1.00018 2.92854C0.857323 2.92854 0.60018 3.07139 0.443037 3.24282ZM22.343 4.55711C22.1002 4.67139 21.7288 4.98568 21.5145 5.25711L21.143 5.74282L21.1716 10.1571L21.2145 14.5714L26.843 14.6143C30.9288 14.6428 32.5145 14.6 32.6716 14.4857C32.8288 14.3428 32.8573 13.7428 32.8288 11.3714L32.7859 8.42854H28.643V8.92854C28.643 9.41425 28.6573 9.42854 29.2573 9.47139L29.8716 9.51425L29.8288 10.5428L29.7859 11.5714H24.2145L24.1716 9.45711L24.1288 7.35711H28.2716C30.543 7.35711 32.5002 7.31425 32.6288 7.27139C32.8145 7.19997 32.8573 6.94282 32.8573 5.99996C32.8573 5.34282 32.8145 4.71425 32.7716 4.58568C32.7002 4.38568 32.1145 4.35711 27.7288 4.35711C23.8859 4.37139 22.6859 4.41425 22.343 4.55711ZM35.4859 4.98568L34.8573 5.59997V7.49997C34.8573 9.57139 35.0002 10.1285 35.6859 10.6C36.0288 10.8285 36.5002 10.8714 39.5716 10.9285C42.9573 11 43.0716 11.0143 43.0716 11.2857C43.0716 11.5571 42.9573 11.5714 38.9716 11.6143L34.8573 11.6428V12.9143C34.8573 13.6143 34.9002 14.2857 34.943 14.4143C35.0145 14.6143 35.5859 14.6428 39.8716 14.6428H44.7145L45.3716 14.0143L46.0145 13.3857L45.9716 11.2143L45.9288 9.04282L45.4002 8.55711L44.8573 8.07139H37.8573V7.35711L41.9002 7.32854L45.9288 7.28568V4.42854L41.0145 4.38568L36.1145 4.35711L35.4859 4.98568ZM48.2145 4.54282C48.1716 4.62854 48.1573 6.92854 48.1716 9.64282L48.2145 14.5714H50.9288L50.9716 12.2428C50.9859 10.9714 51.0573 9.92854 51.1145 9.92854C51.1716 9.92854 51.8859 10.6714 52.7002 11.5714C53.5002 12.4714 54.2145 13.2143 54.2716 13.2143C54.343 13.2143 55.043 12.4714 55.8573 11.5714C56.6573 10.6714 57.3573 9.92854 57.4145 9.92854C57.4573 9.92854 57.4859 10.8571 57.4573 11.9857C57.3859 14.7143 57.3573 14.6714 59.043 14.6143L60.3573 14.5714V4.42854L59.2859 4.38568L58.2002 4.34282L56.2859 6.49997C55.2288 7.67139 54.3288 8.64282 54.2859 8.64282C54.243 8.64282 53.343 7.67139 52.2859 6.49997L50.3716 4.35711H49.3288C48.6145 4.35711 48.2573 4.41425 48.2145 4.54282ZM62.5145 4.58568C62.3573 4.99996 62.4145 6.99997 62.6002 7.18568C62.7288 7.31425 63.8145 7.35711 66.6145 7.35711H70.443L70.4002 7.88568L70.3573 8.42854L66.4288 8.49997L62.5002 8.57139L62.4573 11.3285C62.443 13.0857 62.4716 14.1857 62.5716 14.3714C62.7145 14.6285 62.8573 14.6428 64.043 14.6143L65.3573 14.5714L65.4002 12.9714L65.443 11.3714L68.7573 11.3285C72.5002 11.2857 72.5859 11.2571 73.143 10.1285C73.3859 9.64282 73.4288 9.27139 73.4288 7.81425C73.4288 5.67139 73.2288 5.05711 72.4145 4.64282C71.9002 4.37139 71.5573 4.35711 67.2288 4.35711C63.143 4.35711 62.5859 4.38568 62.5145 4.58568ZM75.3716 4.58568C75.2145 4.99996 75.2716 6.99997 75.4573 7.18568C75.5859 7.31425 76.6716 7.35711 79.4716 7.35711H83.3002L83.2573 7.88568L83.2145 8.42854L79.2859 8.49997L75.3573 8.57139L75.3145 11.3285C75.3002 13.0571 75.3288 14.1857 75.4288 14.3571C75.5573 14.6143 75.7288 14.6428 76.843 14.6428C77.8716 14.6428 78.1288 14.6 78.2002 14.4143C78.243 14.2857 78.2859 13.5571 78.2859 12.7714V11.3571H79.4716L80.643 11.3714L81.9288 13L83.2145 14.6428H84.8002C86.1288 14.6428 86.4145 14.6 86.4859 14.4143C86.543 14.2714 86.2288 13.7428 85.5716 12.9143C85.0145 12.2143 84.5288 11.5571 84.4859 11.4571C84.4573 11.3571 84.6716 11.1571 85.0288 11C86.0859 10.5 86.2145 10.1857 86.2573 7.98568C86.3002 6.27139 86.2716 5.99997 86.0145 5.45711C85.4859 4.37139 85.3859 4.35711 80.0859 4.35711C76.0002 4.35711 75.443 4.38568 75.3716 4.58568ZM89.3145 4.58568C88.7573 4.82854 88.3288 5.49997 88.2002 6.31425C88.043 7.38568 87.9145 7.35711 92.6573 7.35711H96.8573V11.6428L94.043 11.6143L91.2145 11.5714L91.143 9.99997L91.0716 8.42854H88.2145L88.1716 10.0714C88.1145 12.3285 88.2288 13.1143 88.6859 13.6714C89.443 14.5714 89.7859 14.6428 94.043 14.6428C97.643 14.6428 97.9002 14.6285 98.5002 14.3428C99.143 14.0428 99.5002 13.6428 99.8288 12.8857C99.943 12.6143 100 11.4714 100 9.31425C100 6.28568 99.9859 6.11425 99.6716 5.57139C99.5002 5.25711 99.1288 4.85711 98.8716 4.68568C98.3859 4.35711 98.3288 4.35711 94.0859 4.37139C90.6859 4.37139 89.6859 4.42854 89.3145 4.58568ZM17.5716 12.6857C17.5716 15.8714 17.5859 16.0714 17.8288 16.0714C18.2859 16.0714 18.7145 15.4714 18.7145 14.8285C18.7145 14.2285 17.8002 9.54282 17.6573 9.38568C17.6145 9.34282 17.5716 10.8285 17.5716 12.6857ZM2.85732 17.9C2.85732 18.3571 3.45732 18.7857 4.10018 18.7857C4.70018 18.7857 9.38589 17.8714 9.54304 17.7285C9.58589 17.6857 8.10018 17.6428 6.24304 17.6428C3.05732 17.6428 2.85732 17.6571 2.85732 17.9Z" fill="#686868"/>
</g>
<defs>
<clipPath id="clip0_82_1138">
<rect width="100" height="18.8571" fill="white"/>
</clipPath>
</defs>
</svg>
