<svg width="72" height="71" viewBox="0 0 72 71" fill="none" xmlns="http://www.w3.org/2000/svg">
<path fill-rule="evenodd" clip-rule="evenodd" d="M33.9659 11.616C29.6851 11.9605 25.5773 13.4566 22.0776 15.9458L13.6214 7.8177C19.2417 3.27941 26.273 0.420059 33.9542 0L33.9659 11.616ZM35.924 37.3003C40.3769 37.3003 43.9871 33.6902 43.9871 29.2373C43.9871 24.7844 40.3769 21.1742 35.924 21.1742C31.4711 21.1742 27.8609 24.7844 27.8609 29.2373C27.8609 33.6902 31.4711 37.3003 35.924 37.3003ZM18.9092 18.6374C15.5037 22.0789 13.1346 26.5483 12.3092 31.5383L0.61084 31.5504C1.51165 23.3517 5.20245 15.9922 10.7126 10.4425L18.9092 18.6374Z" fill="#686868"/>
<path fill-rule="evenodd" clip-rule="evenodd" d="M35.9238 71C55.5439 71 71.4507 55.0945 71.4507 35.4736H59.8607C59.8607 48.6926 49.1434 59.41 35.9243 59.41C22.7048 59.41 11.9874 48.6926 11.9874 35.4736H0.396973C0.396973 55.0941 16.3033 71 35.9238 71ZM37.882 11.616C42.1628 11.9602 46.2707 13.4563 49.7702 15.9458L58.2269 7.8177C52.6066 3.27941 45.5748 0.420059 37.8941 0L37.882 11.616ZM52.9382 18.6374C56.3442 22.0789 58.7133 26.5483 59.5382 31.5383L71.2366 31.5504C70.3358 23.3517 66.645 15.9922 61.1348 10.4425L52.9382 18.6374Z" fill="#686868"/>
</svg>
