<svg width="100" height="26" viewBox="0 0 100 26" fill="none" xmlns="http://www.w3.org/2000/svg">
<g clip-path="url(#clip0_82_1151)">
<path d="M0.375 18.7701V25.2488H4.91835V19.0495C4.91835 18.4493 5.15639 17.8697 5.58071 17.4454C6.01538 17.0107 6.58459 16.7727 7.1952 16.7727H11.8524C14.0258 16.7727 16.1163 15.9137 17.648 14.3716C19.1901 12.8296 20.0491 10.739 20.0491 8.56566C20.0491 6.3923 19.1901 4.30173 17.648 2.75969C16.1163 1.22799 14.0258 0.358643 11.8524 0.358643H0.375V8.46216H4.91835V4.64326H11.5419C12.5768 4.64326 13.56 5.04689 14.2845 5.78169C15.0193 6.50614 15.4229 7.49967 15.4229 8.52426C15.4229 9.55919 15.0193 10.5424 14.2948 11.2668C13.56 12.0016 12.5768 12.4053 11.5419 12.4053H6.72948C5.89119 12.4053 5.06324 12.5708 4.29739 12.8917C3.52119 13.2125 2.82779 13.6782 2.23788 14.2681C1.63762 14.858 1.1719 15.5618 0.851069 16.338C0.540589 17.1038 0.375 17.9318 0.375 18.7701Z" fill="#686868"/>
<path d="M7.1952 16.7725C5.38407 16.7725 3.64539 17.4969 2.37242 18.7699C1.09375 20.0492 0.375318 21.7839 0.375 23.5927V25.2486H4.91835V19.0493C4.91835 18.4491 5.15639 17.8695 5.58071 17.4452C6.01538 17.0105 6.58459 16.7725 7.1952 16.7725Z" fill="url(#paint0_linear_82_1151)"/>
<path d="M20.7529 25.2484V15.3752C20.7529 11.3493 23.1125 8.14099 27.8111 8.14099C28.5666 8.13064 29.3221 8.21343 30.0569 8.38937V12.4463C29.5187 12.4153 29.053 12.4153 28.846 12.4153C26.3519 12.4153 25.2755 13.5537 25.2755 15.8719V25.2484H20.7529ZM40.3545 25.6417C35.4075 25.6417 31.4127 21.7296 31.4127 16.8965C31.4127 12.053 35.4075 8.14099 40.3545 8.14099C45.2911 8.14099 49.2963 12.053 49.2963 16.8965C49.2963 21.7296 45.2911 25.6417 40.3545 25.6417ZM44.8357 16.8758C44.8357 14.216 42.828 12.0634 40.3545 12.0634C37.8706 12.0634 35.8629 14.216 35.8629 16.8758C35.8629 19.5356 37.8706 21.6883 40.3545 21.6883C42.828 21.6883 44.8357 19.5356 44.8357 16.8758ZM62.3985 12.0944H57.524V18.3351C57.524 20.5084 58.3002 21.5123 60.546 21.5123C60.7633 21.5123 61.2912 21.5123 61.9742 21.4709V25.1449C61.0428 25.3933 60.2252 25.5382 59.3351 25.5382C55.5576 25.5382 53.0014 23.251 53.0014 18.9457V12.0944H49.969V8.49287H50.7245C51.0246 8.49287 51.3144 8.44112 51.5938 8.32728C51.8733 8.20308 52.1217 8.0375 52.3286 7.83051C52.546 7.61317 52.7116 7.36479 52.8254 7.08536C52.9393 6.81628 53.0014 6.51614 53.0014 6.21601V2.83179H57.524V8.49287H62.3985V12.0944ZM72.6961 25.6417C67.7491 25.6417 63.7543 21.7296 63.7543 16.8965C63.7543 12.053 67.7491 8.14099 72.6961 8.14099C77.6431 8.14099 81.6379 12.053 81.6379 16.8965C81.6379 21.7296 77.6431 25.6417 72.6961 25.6417ZM77.1877 16.8758C77.1877 14.216 75.1799 12.0634 72.6961 12.0634C70.2123 12.0634 68.2045 14.216 68.2045 16.8758C68.2045 19.5356 70.2123 21.6883 72.6961 21.6883C75.1799 21.6883 77.1877 19.5356 77.1877 16.8758ZM83.9872 25.2484V15.7374C83.9872 11.3079 86.8022 8.14099 91.8217 8.14099C96.81 8.14099 99.625 11.3079 99.625 15.7374V25.2484H95.1334V16.0893C95.1334 13.6261 94.0364 12.0944 91.8217 12.0944C89.6173 12.0944 88.5099 13.6261 88.5099 16.0893V25.2484H83.9872Z" fill="#686868"/>
</g>
<defs>
<linearGradient id="paint0_linear_82_1151" x1="3.78169" y1="24.024" x2="3.78169" y2="14.4999" gradientUnits="userSpaceOnUse">
<stop stop-color="#222222"/>
<stop offset="1" stop-color="#010101"/>
</linearGradient>
<clipPath id="clip0_82_1151">
<rect width="99.25" height="25.2889" fill="white" transform="translate(0.375 0.355591)"/>
</clipPath>
</defs>
</svg>
