<svg width="100" height="24" viewBox="0 0 100 24" fill="none" xmlns="http://www.w3.org/2000/svg">
<path fill-rule="evenodd" clip-rule="evenodd" d="M6.58045 3.62932V18.6224H5.03846V3.62932H0V2.35022H11.6183V3.62932H6.58045Z" fill="#686868"/>
<path fill-rule="evenodd" clip-rule="evenodd" d="M19.7662 18.6224V10.8595C19.7662 8.85895 19.2358 7.67886 17.3314 7.67886C15.0651 7.67886 13.4748 9.87177 13.4748 12.9096V18.6224H11.9561V2.25461C11.2612 2.14354 10.5618 2.06286 9.85992 2.01279V1.19457C10.8477 1.07281 12.3664 0.977785 13.4753 1.02444V7.07572C13.4753 7.89621 13.427 8.85895 13.2824 9.46209L13.3308 9.48599C14.0295 7.62992 15.5726 6.44812 17.6688 6.44812C20.441 6.44812 21.2854 8.15966 21.2854 10.282V18.6224H19.7662ZM31.7913 12.1375H23.6683C23.5238 15.9464 24.9941 17.5123 27.7907 17.5123C28.9486 17.5123 30.1526 17.2721 31.166 16.8135L31.4545 18.0909C30.3216 18.5495 28.9486 18.8153 27.4522 18.8153C23.9568 18.8153 22.0541 16.8858 22.0541 12.6678C22.0541 9.09964 23.9813 6.44755 27.2365 6.44755C30.49 6.44755 31.8403 8.68939 31.8403 11.2687C31.8397 11.4382 31.8397 11.7284 31.7913 12.1375ZM27.1386 7.60546C25.3554 7.60546 24.0786 8.88342 23.7639 10.9807H30.2249C30.2727 8.95625 29.092 7.60546 27.1386 7.60546ZM40.0048 18.6696C39.0403 18.6696 37.2816 18.6224 35.2321 18.6224V2.37467C36.6067 2.30355 38.6546 2.25461 40.6318 2.25461C44.1266 2.25461 46.0788 3.67654 46.0788 6.27969C46.0788 7.89621 45.1872 9.2931 43.6208 9.9207V9.96793C45.5485 10.3782 46.5374 11.9679 46.5374 13.6078C46.5374 15.9708 44.9232 18.6696 40.0048 18.6696ZM40.126 4.78494C39.45 4.78494 38.9203 4.80884 38.3655 4.8333V9.07574C38.7519 9.10021 39.1371 9.10021 39.6435 9.10021C41.7897 9.10021 42.753 8.23135 42.753 6.78553C42.753 5.58097 42.0537 4.78494 40.126 4.78494ZM39.7402 11.4382C39.499 11.4382 38.7029 11.4382 38.3655 11.4627V16.0192C38.7519 16.0664 39.3789 16.1148 40.1015 16.1148C42.1505 16.1148 43.1866 15.1509 43.1866 13.6806C43.1872 12.0897 41.7897 11.4382 39.7402 11.4382ZM54.2758 18.6468C54.2758 17.947 54.2991 17.2238 54.3959 16.5973L54.3725 16.5717C53.7944 17.9219 52.323 18.8619 50.5386 18.8619C48.3696 18.8619 47.1167 17.5361 47.1167 15.6084C47.1167 12.7389 49.9605 11.2459 54.034 11.2459V10.6672C54.034 9.41259 53.4325 8.76279 51.6971 8.76279C50.6126 8.76279 49.1662 9.12411 48.2018 9.62994L47.8399 7.09905C49.0689 6.68937 50.6598 6.37585 52.1312 6.37585C56.0363 6.37585 57.1202 7.91784 57.1202 10.5455V16.2582C57.6994 16.3555 58.5182 16.4511 59.2175 16.5V18.4278C57.6983 18.6224 55.8422 18.6941 54.2758 18.6468ZM54.0334 13.2453C50.9005 13.2453 50.0573 14.0897 50.0573 15.1264C50.0573 15.9219 50.587 16.5011 51.4797 16.5011C52.9978 16.5011 54.0334 15.0548 54.0334 13.6084V13.2453ZM67.1727 18.6224V10.9563C67.1727 9.72724 66.8358 8.98015 65.7024 8.98015C64.1365 8.98015 62.9075 10.7389 62.9075 12.8362V18.6218H59.8457V9.00462C59.1502 8.89239 58.45 8.81189 57.7472 8.76336V6.8339C59.2665 6.64101 61.1225 6.56988 62.7373 6.61711C62.7373 7.19578 62.6907 8.13576 62.5684 8.78726H62.5928C63.316 7.38867 64.7146 6.40089 66.6668 6.40089C69.3673 6.40089 70.2344 8.11129 70.2344 10.2092V18.6224H67.1727ZM78.5025 18.6224L74.7898 12.6923V18.6224H71.7047V3.38748C71.0095 3.27631 70.3097 3.19581 69.6074 3.14623V1.21676C71.1511 1.02387 73.0072 0.952749 74.7893 1.00111V11.6311L78.2857 6.641H82.0462L77.8277 12.1136L82.3598 18.6218L78.5025 18.6224Z" fill="#686868"/>
<path fill-rule="evenodd" clip-rule="evenodd" d="M91.5698 13.1505H84.145C84.1205 15.3673 85.2295 16.4524 87.448 16.4524C88.5803 16.4524 89.7849 16.2123 90.9189 15.7292L91.258 18.0683C89.9556 18.5981 88.3885 18.8626 86.9182 18.8626C83.1333 18.8626 81.0126 16.9594 81.0126 12.7397C81.0126 9.07591 83.0377 6.37659 86.6292 6.37659C90.1234 6.37659 91.666 8.76296 91.666 11.728C91.6654 12.1377 91.6409 12.6196 91.5698 13.1505ZM86.5319 8.64176C85.2539 8.64176 84.3629 9.58175 84.1927 11.0765H88.6048C88.6537 9.53509 87.8332 8.64176 86.5319 8.64176Z" fill="#686868"/>
<path fill-rule="evenodd" clip-rule="evenodd" d="M99.7646 9.43827C97.4755 8.95634 96.366 10.4022 96.366 13.7291V18.623H93.3042V9.0047C92.6088 8.89234 91.9085 8.81184 91.2057 8.76345V6.83398C92.725 6.64109 94.5822 6.56996 96.1958 6.61719C96.1866 7.4331 96.1145 8.24709 95.9802 9.05193H96.0291C96.6084 7.53442 97.764 6.20865 99.9097 6.40154L99.7646 9.43827Z" fill="#686868"/>
<path d="M35.1425 21.3005H100V23.56H35.1425V21.3005Z" fill="#686868"/>
</svg>
