<svg width="100" height="31" viewBox="0 0 100 31" fill="none" xmlns="http://www.w3.org/2000/svg">
<path d="M12.132 0.0996127C12.2207 0.254946 11.8213 0.443564 11.3886 0.443564C11.0003 0.443564 9.42474 0.809706 9.02532 0.998324C8.90327 1.0538 8.55932 1.19804 8.24865 1.33118C6.70642 1.9747 4.92009 3.26175 3.88824 4.47112C2.66776 5.89131 1.6692 7.65545 1.23648 9.1533C0.726104 10.9396 0.715009 11.1061 0.681723 20.9364L0.648438 30.2897H7.07256L7.10585 20.892C7.12804 13.3029 7.17242 11.4167 7.28337 11.1504C7.97127 9.64149 8.29303 9.10892 8.98094 8.43211C10.2014 7.22273 11.5772 6.65688 13.297 6.65688C15.8711 6.65688 17.957 8.09925 19.0776 10.6512C19.3217 11.2059 19.3439 11.4056 19.3439 12.8702C19.3439 14.5789 19.355 14.5123 18.6449 15.9768C18.3564 16.5649 16.9695 17.9074 16.326 18.2403C14.3621 19.2277 12.8754 19.3165 10.856 18.562C10.2569 18.3401 9.11408 17.5857 8.93655 17.2972C8.85889 17.1751 8.77013 17.0864 8.72575 17.0864C8.67027 17.0864 8.63698 18.7728 8.63698 20.8476V24.5978L9.11408 24.7753C10.5786 25.3079 10.8338 25.3412 13.2415 25.3523C15.6159 25.3523 16.2261 25.2746 17.3467 24.7975C17.5353 24.7199 17.9348 24.5645 18.2343 24.4536C18.545 24.3426 19.0221 24.1096 19.2995 23.9432C19.5769 23.7768 19.8431 23.6325 19.8875 23.6325C20.0207 23.6325 21.2966 22.634 21.929 22.0237C22.2619 21.7242 22.6058 21.469 22.7057 21.469C22.8388 21.469 22.9276 21.7131 23.0718 22.5674C23.8041 26.717 26.822 29.857 30.9383 30.7446C31.7705 30.9221 34.0117 30.9998 34.4888 30.8555C34.6996 30.8 35.2322 30.6669 35.6538 30.5781C36.8965 30.3008 39.4817 28.8806 39.4817 28.4811C39.4817 28.3924 38.9602 27.6379 38.1058 26.4618C37.7841 26.0291 37.3403 25.3967 37.0962 25.0527C36.8632 24.6977 36.6191 24.4092 36.5525 24.4092C36.497 24.4092 36.3195 24.5313 36.1642 24.6755C35.9978 24.8308 35.5318 25.1415 35.099 25.3745L34.3224 25.7961H31.6595L30.8607 25.3745C29.0854 24.4203 28.1978 23.0667 28.0869 21.1361C27.9648 18.8394 29.0522 17.2417 31.482 16.1544C31.6262 16.0878 32.3031 16.0323 32.9799 16.0323C34.0006 16.0434 34.3002 16.0767 34.744 16.2875C35.0325 16.4207 35.2655 16.576 35.2655 16.6426C35.2655 16.8312 34.8217 17.1973 33.69 17.974C32.0146 19.1057 30.6166 20.1265 30.6166 20.2152C30.6055 20.2929 31.2601 21.3025 31.3932 21.4135C31.4265 21.4468 31.6484 21.7464 31.8814 22.0792C32.5582 23.0556 32.8467 23.4106 32.9466 23.4106C33.0021 23.4106 33.2905 23.2442 33.579 23.0445C33.8675 22.8448 34.5221 22.3788 35.0436 22.0237C36.5081 21.0141 37.3847 20.4038 37.9283 20.0266C38.2057 19.838 38.9269 19.3387 39.5371 18.9171C40.1474 18.5066 40.7243 18.096 40.8131 18.0184C41.2569 17.6411 41.268 17.8076 41.2902 24.1429L41.3124 30.2342L44.064 30.2675L46.8045 30.2897V23.9099C46.8045 17.741 46.8156 17.508 47.0264 17.0864C47.3038 16.5316 47.6255 16.232 48.1914 15.9658C48.9459 15.6107 49.5339 15.7106 50.3439 16.2986C51.0872 16.8534 51.065 16.6758 51.1316 23.799L51.1871 30.2342L53.9387 30.2675L56.6792 30.2897V24.1429C56.6792 18.9837 56.6459 17.863 56.5128 17.2306C56.2021 15.877 55.8693 15.067 55.2812 14.1905C53.8388 12.0602 51.5754 10.8731 48.9459 10.8731C46.2497 10.8731 43.831 12.26 42.4219 14.6121C42.1223 15.1225 41.8116 15.5552 41.7451 15.5774C41.6674 15.6107 41.3567 15.2889 41.035 14.8562C39.6148 12.9479 37.2626 11.4722 34.9437 11.0506C31.9147 10.4847 28.8968 11.2614 26.4781 13.2141C25.9788 13.6247 25.8346 13.4471 25.8235 12.4042C25.8235 11.8938 25.7791 11.2614 25.7236 10.984C25.4906 9.69696 25.3575 9.13111 25.2132 8.79825C25.1245 8.60963 25.0579 8.43211 25.0579 8.39882C25.0579 8.26568 24.3589 6.82331 24.026 6.27964C23.4713 5.36983 23.1939 5.01479 22.1177 3.93855C20.9305 2.74027 19.7211 1.90813 18.3453 1.33118C18.0457 1.19804 17.6907 1.0538 17.5686 0.998324C17.1581 0.809706 15.5271 0.443564 15.1277 0.443564C14.8836 0.443564 14.6506 0.354802 14.5174 0.22166C14.3288 0.0330415 14.1513 -0.000244141 13.1749 -0.000244141C12.4981 -0.000244141 12.0876 0.0441367 12.132 0.0996127ZM58.2325 6.29074V15.7217C58.2325 25.5409 58.2215 25.2746 58.7207 26.7947C59.1202 28.0151 60.6735 29.4242 61.9383 29.7238C62.1935 29.7793 62.6152 29.8902 62.8925 29.9568C63.1699 30.0234 63.6026 30.1232 63.8689 30.1787C64.5679 30.3451 68.1406 30.3229 68.307 30.1565C68.3958 30.0678 68.4401 29.5241 68.4401 28.4479C68.4401 27.5048 68.4845 26.8391 68.5511 26.7947C68.7286 26.6837 69.0837 26.8391 69.1613 27.061C69.2501 27.3605 70.293 28.3813 71.1917 29.0359C72.1681 29.7682 73.3886 30.3451 74.3983 30.5781C74.8088 30.6669 75.3303 30.8 75.5411 30.8555C76.0182 30.9998 78.3814 30.9221 79.147 30.7557C80.079 30.5449 80.8446 30.2786 81.5658 29.9346C82.2869 29.5796 83.6406 28.6476 83.6406 28.4922C83.6406 28.4479 83.2966 27.9375 82.8861 27.3827C82.4645 26.8169 81.9208 26.0513 81.6656 25.6852C81.4215 25.319 81.0887 24.8752 80.9444 24.6977L80.6781 24.3759L80.1456 24.7753C79.8571 24.9973 79.3356 25.319 78.9917 25.4854C78.4258 25.7628 78.2594 25.7961 77.0833 25.7961C75.8295 25.7961 75.7741 25.785 75.0307 25.4078C72.8782 24.3093 71.6577 21.8351 72.268 19.8047C72.8227 17.9518 73.9323 16.7424 75.5633 16.1988C76.1846 15.9879 76.4842 15.9547 77.3718 15.999C77.982 16.0212 78.4813 16.0989 78.559 16.1766C78.6366 16.2542 78.7698 16.3097 78.8696 16.3097C79.1692 16.3097 79.4466 16.576 79.3689 16.7757C79.3245 16.8867 79.1359 17.0642 78.9473 17.1862C78.7476 17.3083 78.3482 17.5857 78.0375 17.8076C77.7379 18.0295 77.3052 18.329 77.0944 18.4733C75.3192 19.6826 74.8199 20.071 74.8199 20.2374C74.8199 20.4593 76.8836 23.3995 77.0389 23.4106C77.161 23.4106 77.7379 23.0445 79.147 22.0459C79.6352 21.702 80.656 20.9919 81.4215 20.4704C82.1871 19.9489 83.2633 19.1945 83.807 18.8061C84.3618 18.4178 84.8832 18.096 84.9831 18.096C85.1495 18.0849 85.1717 18.4178 85.2272 21.3247C85.2937 25.4411 85.4713 26.4729 86.2812 27.7267C86.6917 28.3369 87.4906 29.047 88.2007 29.402C88.5557 29.5907 89.1549 29.7571 90.9412 30.1787C91.1964 30.2342 92.2837 30.2897 93.3378 30.2897C94.9466 30.2897 95.3016 30.2564 95.4459 30.1121C95.6012 29.9679 95.6234 29.5907 95.6234 27.7489V25.552L94.0479 25.4965C91.8732 25.4189 91.2852 25.1526 90.9079 24.0874C90.7637 23.6658 90.7415 22.4232 90.7415 14.9117V6.21307H85.1828L85.1939 10.2739C85.205 13.0366 85.1717 14.3791 85.094 14.4568C85.0053 14.5456 84.7612 14.3569 84.2286 13.8244C83.3077 12.9035 82.3202 12.2267 81.0887 11.6941C79.724 11.095 79.2025 10.984 77.6381 10.9063C76.2734 10.8398 74.5536 11.0284 73.9323 11.3169C73.2222 11.6386 72.6563 11.8716 72.6008 11.8716C72.5565 11.8716 72.1126 12.1379 71.6245 12.4597C70.8367 12.97 70.3041 13.4582 69.0171 14.834C68.5622 15.3222 68.4956 15.1447 68.4401 13.3029L68.3847 11.5942L66.1767 11.561C64.7676 11.5499 63.9133 11.4944 63.8134 11.4167C63.7025 11.3169 63.6692 10.7288 63.6692 8.75387V6.21307H60.9509C59.453 6.21307 58.2325 6.24636 58.2325 6.29074ZM67.8854 16.4207C68.0185 16.4983 68.0074 16.5982 67.8077 17.1086C67.4194 18.0738 67.2197 18.9171 67.1198 19.9822C67.031 20.9919 67.1309 22.6784 67.3195 23.1887C67.375 23.3441 67.4527 23.6103 67.497 23.799C67.5303 23.9765 67.6635 24.3981 67.7966 24.7199C68.1073 25.4965 68.0296 25.5409 66.5539 25.4854C64.8786 25.4189 64.2351 25.0971 63.8356 24.154C63.7025 23.8212 63.6692 23.1444 63.6692 20.1597C63.6692 17.5191 63.7025 16.5427 63.8023 16.4428C63.9688 16.2764 67.6302 16.2542 67.8854 16.4207ZM97.8979 23.9765C97.7648 24.1873 97.9312 24.2206 98.1975 24.032L98.4416 23.8544H98.2086C98.0754 23.8544 97.9312 23.9099 97.8979 23.9765ZM98.963 24.0874C99.2071 24.3315 99.3514 24.3093 99.2515 24.0209C99.2071 23.9321 99.074 23.8544 98.952 23.8544C98.73 23.8544 98.73 23.8544 98.963 24.0874ZM97.9534 24.6866C97.9645 24.9751 97.9756 24.9973 98.0754 24.8197C98.1642 24.6644 98.1642 24.5756 98.0754 24.4869C97.9867 24.3981 97.9534 24.4536 97.9534 24.6866ZM98.7411 24.7088C98.7411 24.8197 98.7855 25.0083 98.841 25.1304C98.9187 25.3079 98.9409 25.2746 98.9409 24.9307C98.952 24.7088 98.9076 24.5202 98.841 24.5202C98.7855 24.5202 98.73 24.6089 98.7411 24.7088Z" fill="#686868"/>
</svg>
