<svg width="100" height="15" viewBox="0 0 100 15" fill="none" xmlns="http://www.w3.org/2000/svg">
<g clip-path="url(#clip0_82_1134)">
<path d="M26.3817 11.2359H29.5597L29.932 11.9639H27.6887L27.978 12.5339H30.1153L30.4767 13.2389H28.339L28.866 14.2763H27.932L26.3817 11.2359ZM41.279 11.1216H42.2103L43.7603 14.1616H42.8263L41.279 11.1216ZM54.6693 11.2359H55.6003L56.7523 13.4969H58.847L59.2453 14.2763H56.2137L54.6693 11.2359ZM67.89 11.2359H69.323L71.3747 13.1933L71.4347 11.2359H72.8647L74.412 14.2763H73.5067L72.3947 12.0929H72.3857L72.274 14.2763H71.5773L69.2423 12.0929H69.233L70.345 14.2763H69.4367L67.8893 11.2363M83.0567 13.2793H83.988C84.1543 13.6026 84.3003 13.6316 84.5697 13.6316H85.7103C85.9107 13.6316 86.1 13.6086 85.9797 13.3766C85.845 13.1073 85.7273 13.0899 84.5267 13.0899C83.1227 13.0899 82.879 12.9239 82.498 12.1789C82.2173 11.6289 82.0513 11.1989 83.2287 11.1989H84.5323C85.607 11.1989 85.8937 11.5686 86.1657 12.0986L86.2147 12.1959H85.2803C85.169 11.9753 85.097 11.8809 84.6643 11.8809H83.6357C83.4237 11.8809 83.3177 11.9553 83.4007 12.1156C83.5357 12.3793 83.6557 12.3879 84.65 12.3849C86.097 12.3783 86.481 12.4683 86.931 13.3593C87.3463 14.1759 87.1373 14.3106 85.8993 14.3106H84.7677C83.9223 14.3106 83.4983 14.1503 83.163 13.4913L83.057 13.2793M84.8563 3.69994C84.759 3.51394 84.6497 3.36494 84.5497 3.19861L86.504 7.06394C86.4185 6.83121 86.3199 6.60352 86.2087 6.38194L84.8563 3.69994ZM74.028 4.90628L75.3833 7.58828C75.4407 7.70561 75.515 7.79761 75.578 7.90928L73.773 4.33928C73.8443 4.51961 73.9277 4.70594 74.028 4.90628ZM0 0.115277H8.10633C12.562 0.115277 15.2753 1.57394 17.273 5.55694L18.7427 8.49094C20.6653 12.3219 20.1667 14.1359 15.7083 14.1359H7.029L0 0.115277ZM9.662 10.8866H13.3957C14.9717 10.8866 15.0923 9.96961 14.35 8.49094L12.877 5.55694C11.9687 3.74294 11.1203 3.36761 9.62767 3.36761H5.89433L9.662 10.8866ZM23.9003 9.74594H20.9667L16.1233 0.0866107H19.0603L23.9003 9.74594ZM28.5023 9.74594H25.5623L20.7197 0.0866107H25.379L30.5223 6.15294H30.6223L29.5827 0.0866107H34.3563L39.199 9.74594H36.259L32.8433 2.33928H32.7373L33.6573 9.74594H31.1153L24.5823 2.33928H24.4963L28.5023 9.74594ZM40.9093 3.96361H45.6117L46.5083 5.75461H41.8093L42.7493 7.63128H47.8637L48.921 9.74594H40.8693L36.03 0.0866107H43.9787L45.036 2.19861H40.0273L40.9093 3.96361ZM53.5803 9.74594H50.6403L45.798 0.0866107H50.7663L57.6407 7.50228H57.7583L53.864 0.0866107H56.807L61.6467 9.74594H56.635L49.801 2.32761H49.6833L53.5803 9.74594ZM65.2223 3.87194C68.5893 4.08094 69.578 4.43928 70.6867 6.65428C71.4863 8.25328 72.3487 9.82061 67.5003 9.82061C64.6923 9.82061 62.8013 9.77161 61.2137 6.60261H64.0333C64.5407 7.60861 65.002 7.70861 66.44 7.70861C67.8213 7.70861 68.2367 7.63128 67.833 6.82328C67.4147 5.98361 67.257 5.99794 65.8387 5.91794L65.1737 5.88061C62.3687 5.71428 60.7897 5.72861 59.4 2.95794C58.0133 0.189944 59.701 0.00927734 62.5807 0.00927734C64.9907 0.00927734 67.065 0.0492773 68.403 2.71428L68.6037 3.11261H65.7813C65.2857 2.12094 64.8183 2.12094 63.6407 2.12094C62.0533 2.12094 62.0647 2.40194 62.334 2.94628C62.7207 3.71728 63.1593 3.74294 63.9617 3.79728L65.2223 3.87194Z" fill="#686868"/>
<path d="M76.4666 9.74591H73.5266L68.6866 0.0865791H71.6236L76.4666 9.74591ZM75.9733 6.31591L74.604 3.58525C73.114 0.611246 74.9446 0.0435791 77.9276 0.0435791C80.9106 0.0435791 83.309 0.611246 84.802 3.58525L86.1686 6.31625C87.6586 9.29058 85.8246 9.85791 82.8476 9.85791C79.862 9.85791 77.4636 9.29058 75.9736 6.31625L75.9733 6.31591ZM82.9966 6.03258L81.9106 3.85458C81.194 2.42491 80.5783 2.28158 79.0506 2.28158C77.523 2.28158 77.091 2.42491 77.7673 3.85491L78.859 6.03258C79.624 7.47391 80.1943 7.61425 81.7216 7.61425C83.249 7.61425 83.7216 7.47391 82.9966 6.03258ZM91.934 9.74591H88.994L84.154 0.0865791H89.1173L95.994 7.50225H96.1143L92.2176 0.0865791H95.1576L100 9.74591H94.9883L88.1543 2.32758H88.0396L91.934 9.74591Z" fill="#686868"/>
</g>
<defs>
<clipPath id="clip0_82_1134">
<rect width="100" height="14.32" fill="white"/>
</clipPath>
</defs>
</svg>
