<svg width="102" height="22" viewBox="0 0 102 22" fill="none" xmlns="http://www.w3.org/2000/svg">
<path fill-rule="evenodd" clip-rule="evenodd" d="M51.0911 21.1876H50.5439L50.0571 20.1537H48.4759L48.0501 21.1876H47.5029L49.0841 17.5385H49.4489L51.0911 21.1876ZM48.7187 19.6669H49.8741L49.2659 18.3285L48.7187 19.6669ZM51.8822 19.1191C52.0646 18.8763 52.369 18.7549 52.6113 18.7549C53.098 18.7549 53.4628 19.0587 53.4628 19.7279V21.1876H52.9761V19.7279C52.9761 19.3625 52.7937 19.1191 52.4893 19.1191C52.3069 19.1191 52.1239 19.2416 51.8817 19.4845V21.1876H51.3949V18.8153H51.8817L51.8822 19.1191ZM57.4175 18.3285C57.1126 18.0247 56.8087 17.9631 56.5659 17.9631C56.2006 17.9631 55.9572 18.1455 55.9572 18.3895C55.9572 19.1185 57.5993 19.1185 57.5993 20.2745C57.5993 20.8223 57.1126 21.2486 56.5665 21.2486C56.1401 21.2486 55.8363 21.1261 55.5325 20.9437V20.2745C55.7753 20.5794 56.1401 20.7613 56.5055 20.7613C56.8709 20.7613 57.1131 20.5184 57.1131 20.336C57.1131 19.5455 55.471 19.4845 55.471 18.4499C55.471 17.9033 55.9577 17.4769 56.6263 17.4769C56.8703 17.4769 57.1741 17.5983 57.4181 17.7209L57.4175 18.3285ZM60.2151 18.0247H58.6943V19.1191H60.1541V19.6059H58.6943V20.7613H60.2749V21.1876H58.1465V17.5385H60.2151V18.0247ZM62.5863 18.3285C62.2824 18.0247 61.9786 17.9631 61.7358 17.9631C61.3704 17.9631 61.1271 18.1455 61.1271 18.3895C61.1271 19.1185 62.7088 19.1185 62.7088 20.2745C62.7088 20.8223 62.2824 21.2486 61.6748 21.2486C61.3095 21.2486 61.0057 21.1261 60.7018 20.9437V20.2745C60.9447 20.5794 61.3095 20.7613 61.6138 20.7613C62.0402 20.7613 62.2226 20.5184 62.2226 20.336C62.2226 19.5455 60.6408 19.4845 60.6408 18.4499C60.6408 17.9033 61.0672 17.4769 61.7364 17.4769C62.0402 17.4769 62.344 17.5983 62.5868 17.7209L62.5863 18.3285ZM67.4523 21.1876H66.9057L66.4184 20.1537H64.8378L64.4114 21.1876H63.8648L65.4454 17.5385H65.8107L67.4523 21.1876ZM65.08 19.6669H66.2365L65.6278 18.3285L65.08 19.6669ZM69.5813 18.3285C69.2775 18.0247 68.9737 17.9631 68.7309 17.9631C68.4259 17.9631 68.1831 18.1455 68.1831 18.3895C68.1831 19.1185 69.7637 19.1185 69.7637 20.2745C69.7637 20.8223 69.2769 21.2486 68.7309 21.2486C68.3045 21.2486 68.0007 21.1261 67.6969 20.9437V20.2745C67.9397 20.5794 68.3045 20.7613 68.6699 20.7613C69.0951 20.7613 69.2775 20.5184 69.2775 20.336C69.2775 19.5455 67.6969 19.4845 67.6969 18.4499C67.6969 17.9033 68.1221 17.4769 68.7913 17.4769C69.0352 17.4769 69.339 17.5983 69.5819 17.7209L69.5813 18.3285ZM73.0492 18.0247H71.8322V21.1876H71.2844V18.0247H70.0077V17.5385H73.0492V18.0247ZM74.5084 17.5385C75.2374 17.5385 75.7253 17.9039 75.7253 18.5725C75.7253 18.9977 75.4814 19.3015 75.1166 19.4845C75.4204 19.6669 75.6643 20.0322 75.9071 20.4575C76.0895 20.7613 76.1511 20.8838 76.3945 21.1876H75.7857L75.299 20.4575C74.8122 19.7284 74.5688 19.6059 74.326 19.6059H74.082V21.1876H73.5952V17.5385H74.5084ZM74.082 19.1191H74.4474C74.9951 19.1191 75.1775 18.8763 75.1775 18.5725C75.1775 18.2071 74.9336 17.9637 74.4474 17.9637H74.082V19.1191Z" fill="#686868"/>
<path fill-rule="evenodd" clip-rule="evenodd" d="M79.9827 21.1876H79.4959L78.9482 20.1536H77.4274L76.9406 21.1876H76.394L77.9746 17.5385H78.34L79.9827 21.1876ZM77.6098 19.6669H78.7652L78.1576 18.3285L77.6098 19.6669ZM83.6319 18.3285C83.3281 18.0247 83.0242 17.9631 82.7803 17.9631C82.4765 17.9631 82.2325 18.1455 82.2325 18.3895C82.2325 19.1185 83.8143 19.1185 83.8143 20.2745C83.8143 20.8222 83.3879 21.2486 82.7803 21.2486C82.3551 21.2486 82.0513 21.1261 81.7463 20.9436V20.2745C81.9903 20.5794 82.3551 20.7613 82.7204 20.7613C83.1457 20.7613 83.328 20.5184 83.328 20.336C83.328 19.5454 81.7463 19.4845 81.7463 18.4499C81.7463 17.9033 82.1727 17.4769 82.8418 17.4769C83.0847 17.4769 83.3885 17.5983 83.6324 17.7209V18.3285H83.6319ZM86.308 20.9436C86.0641 21.1876 85.7602 21.2486 85.335 21.2486C84.6049 21.2486 84.1796 20.6398 84.1796 19.9707C84.1796 19.2416 84.6664 18.7549 85.335 18.7549C85.9426 18.7549 86.369 19.1801 86.369 20.0932H84.6658C84.7257 20.58 85.0312 20.8222 85.4564 20.8222C85.7602 20.8222 86.0641 20.7008 86.308 20.5184V20.9436ZM85.8817 19.7278C85.8817 19.3625 85.6388 19.1801 85.335 19.1801C84.9697 19.1801 84.7263 19.3625 84.6658 19.7278H85.8817ZM87.4024 18.8153V19.363C87.6464 18.9367 87.8892 18.7554 88.1326 18.7554C88.315 18.7554 88.4979 18.8153 88.6803 18.9982L88.4364 19.4246C88.315 19.3021 88.071 19.1806 88.0112 19.1806C87.6458 19.1806 87.4024 19.546 87.4024 19.9712V21.1882H86.9156V18.8158H87.4024V18.8153ZM88.8633 18.8153H89.3495L90.0187 20.2745L90.6879 18.8153H91.1741L90.0791 21.2486H89.9577L88.8633 18.8153ZM91.7823 18.3285C91.6609 18.3285 91.4785 18.2071 91.4785 18.0857C91.4785 17.9033 91.6609 17.7807 91.7823 17.7807C91.9647 17.7807 92.0861 17.9033 92.0861 18.0857C92.0861 18.2071 91.9647 18.3285 91.7823 18.3285ZM91.5395 18.8153H92.0262V21.1876H91.5395V18.8153ZM94.52 19.424C94.215 19.2416 94.0332 19.1801 93.8508 19.1801C93.364 19.1801 93.0591 19.5454 93.0591 20.0317C93.0591 20.5179 93.4245 20.8222 93.9107 20.8222C94.0931 20.8222 94.276 20.7613 94.5194 20.6398V21.1266C94.3969 21.1876 94.0931 21.2492 93.8502 21.2492C93.1201 21.2492 92.5723 20.7618 92.5723 20.0322C92.5723 19.2416 93.0591 18.7554 93.7893 18.7554C94.0931 18.7554 94.276 18.8153 94.5194 18.9367V19.424H94.52ZM97.0736 20.9436C96.7698 21.1876 96.527 21.2486 96.1006 21.2486C95.3704 21.2486 94.9452 20.6398 94.9452 19.9707C94.9452 19.2416 95.432 18.7549 96.1006 18.7549C96.7082 18.7549 97.1346 19.1801 97.1346 20.0932H95.4314C95.4924 20.58 95.7968 20.8222 96.222 20.8222C96.527 20.8222 96.8308 20.7008 97.0736 20.5184V20.9436ZM96.6484 19.7278C96.6484 19.3625 96.4044 19.1801 96.1006 19.1801C95.7352 19.1801 95.493 19.3625 95.4314 19.7278H96.6484ZM69.9462 8.17168H65.9932V10.0567H70.1901V8.17168H69.9462ZM82.1111 3.60997H80.4689V11.4554C79.8613 10.7258 73.5953 3.60997 73.5953 3.60997H72.0746V14.6184H73.9607V6.83332C74.6299 7.56292 80.7129 14.6184 80.7129 14.6184H82.3551V3.60997H82.1111ZM90.2615 3.60997H84.0571V14.6184H90.6263V12.8548H86.0042V9.93525H90.3225V8.17168H86.0042V5.37355H90.4439V3.60997H90.2615ZM100.845 3.60997H91.7823V5.37355H95.4314V14.6184H97.3774V5.37355H101.088V3.60997H100.845ZM3.77039 9.50946L8.15026 0.750854L12.59 9.50946C10.4 7.31953 5.83834 7.31953 3.77039 9.50946Z" fill="#686868"/>
<path fill-rule="evenodd" clip-rule="evenodd" d="M0.911865 15.2869C3.8314 8.11005 12.59 8.17104 15.4486 15.2869C11.1302 10.7258 5.23018 10.7868 0.911865 15.2869ZM62.9518 14.6183H64.9587L60.0926 3.6099H58.7543L54.0717 14.6183H56.0177C56.1391 14.4359 56.6253 13.2201 57.2347 11.8207H61.7354C62.3436 13.2195 62.8913 14.4353 62.9518 14.6183ZM57.9643 10.0566C58.6334 8.41442 59.3026 6.95466 59.424 6.65028C59.5466 6.95466 60.2158 8.41442 60.9448 10.0566H57.9643ZM27.9173 6.52887C27.9173 8.23203 29.3161 9.02261 30.5325 9.8132C31.5664 10.4214 32.479 10.9686 32.479 11.8202C32.479 12.307 32.0532 12.9756 30.9588 12.9756C29.9853 12.9756 29.0733 12.4888 28.3437 11.5158L27.9789 11.09V13.6442L28.1003 13.7052C29.0128 14.4342 29.9858 14.7391 31.1412 14.7391C32.9658 14.7391 34.3041 13.4612 34.3041 11.6976C34.3041 9.69065 32.7224 8.77808 31.445 8.10891C30.5325 7.56171 29.7419 7.13535 29.7419 6.34533C29.7419 5.73714 30.3501 5.31135 31.2016 5.31135C31.9922 5.31135 32.7828 5.67672 33.513 6.34533L33.8778 6.64914V4.39992L33.7564 4.3395C33.0262 3.7923 32.1752 3.54834 31.323 3.54834C29.2557 3.54834 27.9173 4.7043 27.9173 6.52887ZM44.1577 3.67032H35.1557V5.43447H38.8049V14.5579H40.6904V5.43447H44.3401V3.67032H44.1577ZM25.4845 14.5579H27.4915L22.6254 3.60933H21.2871L16.604 14.5579H18.5505C18.6115 14.4353 19.1587 13.2195 19.7669 11.8202H24.2072C24.8764 13.2195 25.4236 14.4353 25.4845 14.5579ZM20.497 10.0566C21.1662 8.41442 21.8354 6.95466 21.8958 6.65028C22.0178 6.89367 22.687 8.41442 23.4166 10.0566H20.497ZM50.6044 9.4484C51.578 8.9012 52.1862 7.98864 52.1862 6.83325C52.1862 4.8867 50.7868 3.67032 48.5365 3.67032H45.6779V14.5579H47.6245V10.0566C49.51 10.0566 49.449 10.7258 51.5176 14.5579H53.7674C52.7938 13.4025 51.5786 10.239 50.6044 9.4484ZM47.6245 5.37348H48.3546C49.9968 5.37348 50.2402 6.16407 50.2402 6.77283V6.83325C50.2402 7.25904 50.1188 7.56285 49.8754 7.80624C49.5716 8.11062 49.0848 8.29301 48.3552 8.29301H47.625L47.6245 5.37348Z" fill="#686868"/>
</svg>
